<?xml version="1.0" encoding="utf-8"?>
<!-- Generator: Adobe Illustrator 21.0.0, SVG Export Plug-In . SVG Version: 6.00 Build 0)  -->
<svg version="1.1" id="katman_1" xmlns="http://www.w3.org/2000/svg" xmlns:xlink="http://www.w3.org/1999/xlink" x="0px" y="0px"
	 viewBox="0 0 220 56" style="enable-background:new 0 0 220 56;" xml:space="preserve">
<!-- <rect class="st0" width="220" height="56"/> -->
<style>
	.st0,.st1,.st2{fill:#000;}
</style>
<g id="_x38_19f506f-5274-4e05-81e7-b21e5e7e833f" transform="matrix(3.459518446752246,0,0,3.459518446752246,104.42545287613348,131.23211279753514)">
	<path class="st1" d="M-3.7-28c-0.4,2.8-3.4,2.8-4.2,2.8h-0.5v-8.2c0-1,0.6-1.3,1.2-1.3v-0.2H-11v0.2c0.6,0,1,0.4,1,1.2v6.7
		c0,1-0.3,1.5-0.9,1.5v0.2h7.5v-3H-3.7z M2.8-28.2c0,2.5-0.5,3.1-1.5,3.1c-1,0-1.5-0.6-1.5-3.1c0-2.5,0.5-3.2,1.5-3.2
		C2.3-31.4,2.8-30.7,2.8-28.2z M4.5-28.2c0-1.9-1.2-3.4-3.3-3.4c-2.1,0-3.3,1.5-3.3,3.4c0,1.8,1.2,3.4,3.3,3.4
		C3.4-24.8,4.5-26.4,4.5-28.2z M9.2-31.5c-0.5,0.1-1.1,0.4-1.8,1.5v-1.5l-2.2,0.5v0.2C5.8-30.7,6-30.5,6-30v3.5c0,0.7,0,1.1-0.6,1.3
		v0.2H8v-0.2c-0.5-0.1-0.6-0.5-0.6-1.3v-3.2c0.5-0.9,1.2-1.1,1.2-0.9c0,0.2,0.1,0.4,0.2,0.6c0.4,0.4,0.9,0.3,1.3,0s0.4-0.9,0-1.3
		C9.9-31.5,9.5-31.6,9.2-31.5z M12.3-32.7c0.5,0,0.9-0.4,0.9-0.8s-0.4-0.8-0.9-0.8c-0.5,0-0.8,0.4-0.8,0.8S11.9-32.7,12.3-32.7z
		 M13.8-25.2c-0.5-0.1-0.6-0.5-0.6-1.3v-5.1L11-31.1v0.2c0.6,0.2,0.7,0.4,0.7,0.9v3.5c0,0.7,0,1.1-0.6,1.3v0.2h2.6V-25.2z
		 M21.3-25.2c-0.5-0.1-0.6-0.5-0.6-1.3v-2.9c0-1.7-0.7-2.2-1.8-2.2c-0.9,0-1.9,0.6-2.2,1.5v-1.5l-2.2,0.5v0.2
		c0.6,0.2,0.7,0.4,0.7,0.9v3.5c0,0.7,0,1.1-0.5,1.3v0.2h2.6v-0.2c-0.5-0.1-0.6-0.5-0.6-1.3v-3.1c0-0.5,0.7-1.2,1.3-1.2
		c0.8,0,1.3,0.6,1.3,1.4v2.9c0,0.7,0,1.1-0.6,1.3v0.2h2.6V-25.2z M25.9-26.2c-0.1,0.3-0.4,0.5-0.8,0.5c-0.7,0-1.1-0.4-1.1-1.4v-4.2
		h1.6l0.1-0.2H24v-2.2l-1.5,0.2v1.9h-0.7l0,0.2h0.7v4.2c0,1.7,0.6,2.2,1.7,2.2c0.9,0,1.6-0.7,1.9-1.3L25.9-26.2z M31.6-28.2
		c0,2.5-0.5,3.1-1.5,3.1c-1,0-1.5-0.6-1.5-3.1c0-2.5,0.5-3.2,1.5-3.2C31.2-31.4,31.6-30.7,31.6-28.2z M33.4-28.2
		c0-1.9-1.2-3.4-3.3-3.4c-2.1,0-3.3,1.5-3.3,3.4c0,1.8,1.1,3.4,3.3,3.4C32.3-24.8,33.4-26.4,33.4-28.2z"/>
</g>
<g id="_x39_aced957-e2bf-45de-8eb4-7ea401080893" transform="matrix(0.9266732567358847,0,0,0.9266732567358847,20.27853659694658,103.66679847782676)">
	<path class="st2" d="M34.4-108.2c0,0.8-12.3,1.4-27.6,1.4c-15.2,0-27.6-0.6-27.6-1.4c0-0.8,12.3-1.4,27.6-1.4
		C22.1-109.6,34.4-109,34.4-108.2z M35-96.8c0,1.6-12.6,2.8-28.1,2.8c-15.5,0-28.1-1.3-28.1-2.8c0-1.6,12.6-2.8,28.1-2.8
		C22.4-99.6,35-98.3,35-96.8z M35.6-82.4c0,3.2-12.9,5.7-28.7,5.7c-15.9,0-28.7-2.6-28.7-5.7c0-3.2,12.9-5.7,28.7-5.7
		C22.7-88.1,35.6-85.6,35.6-82.4z M35.6-62.3c0,4.8-12.9,8.6-28.7,8.6c-15.9,0-28.7-3.9-28.7-8.6c0-4.8,12.9-8.6,28.7-8.6
		C22.7-70.9,35.6-67.1,35.6-62.3z"/>
</g>
</svg>
